<?xml version="1.0" encoding="utf-8" standalone="no"?>
<!DOCTYPE svg PUBLIC "-//W3C//DTD SVG 1.1//EN"
  "http://www.w3.org/Graphics/SVG/1.1/DTD/svg11.dtd">
<svg xmlns:xlink="http://www.w3.org/1999/xlink" width="252pt" height="108pt" viewBox="0 0 252 108" xmlns="http://www.w3.org/2000/svg" version="1.1">
 <metadata>
  <rdf:RDF xmlns:dc="http://purl.org/dc/elements/1.1/" xmlns:cc="http://creativecommons.org/ns#" xmlns:rdf="http://www.w3.org/1999/02/22-rdf-syntax-ns#">
   <cc:Work>
    <dc:type rdf:resource="http://purl.org/dc/dcmitype/StillImage"/>
    <dc:date>2026-01-18T18:34:19.762919</dc:date>
    <dc:format>image/svg+xml</dc:format>
    <dc:creator>
     <cc:Agent>
      <dc:title>Matplotlib v3.10.8, https://matplotlib.org/</dc:title>
     </cc:Agent>
    </dc:creator>
   </cc:Work>
  </rdf:RDF>
 </metadata>
 <defs>
  <style type="text/css">*{stroke-linejoin: round; stroke-linecap: butt}</style>
 </defs>
 <g id="figure_1">
  <g id="patch_1">
   <path d="M 0 108 
L 252 108 
L 252 0 
L 0 0 
z
" style="fill: #ffffff"/>
  </g>
  <g id="axes_1">
   <g id="patch_2">
    <path d="M 35.28 93.96 
L 249.48 93.96 
L 249.48 5.4 
L 35.28 5.4 
z
" style="fill: #ffffff"/>
   </g>
   <g id="matplotlib.axis_1">
    <g id="xtick_1">
     <g id="line2d_1">
      <defs>
       <path id="m02202bf0e8" d="M 0 0 
L 0 3.5 
" style="stroke: #000000; stroke-width: 1.5"/>
      </defs>
      <g>
       <use xlink:href="#m02202bf0e8" x="50.58" y="93.96" style="stroke: #000000; stroke-width: 1.5"/>
      </g>
     </g>
     <g id="text_1">
      <!-- Test 1 -->
      <g transform="translate(39.903359 106.278906) scale(0.07 -0.07)">
       <defs>
        <path id="DejaVuSerif-54" d="M 1222 0 
L 1222 331 
L 1819 331 
L 1819 4294 
L 447 4294 
L 447 3566 
L 63 3566 
L 63 4666 
L 4206 4666 
L 4206 3566 
L 3822 3566 
L 3822 4294 
L 2450 4294 
L 2450 331 
L 3047 331 
L 3047 0 
L 1222 0 
z
" transform="scale(0.015625)"/>
        <path id="DejaVuSerif-65" d="M 3469 1600 
L 991 1600 
L 991 1575 
Q 991 903 1244 561 
Q 1497 219 1991 219 
Q 2369 219 2611 417 
Q 2853 616 2950 1006 
L 3413 1006 
Q 3275 459 2904 184 
Q 2534 -91 1931 -91 
Q 1203 -91 761 389 
Q 319 869 319 1663 
Q 319 2450 753 2931 
Q 1188 3413 1894 3413 
Q 2647 3413 3050 2948 
Q 3453 2484 3469 1600 
z
M 2791 1931 
Q 2772 2513 2545 2808 
Q 2319 3103 1894 3103 
Q 1497 3103 1269 2806 
Q 1041 2509 991 1931 
L 2791 1931 
z
" transform="scale(0.015625)"/>
        <path id="DejaVuSerif-73" d="M 359 184 
L 359 959 
L 691 959 
Q 703 588 923 403 
Q 1144 219 1575 219 
Q 1963 219 2166 364 
Q 2369 509 2369 788 
Q 2369 1006 2220 1140 
Q 2072 1275 1594 1428 
L 1178 1569 
Q 750 1706 558 1912 
Q 366 2119 366 2438 
Q 366 2894 700 3153 
Q 1034 3413 1625 3413 
Q 1888 3413 2178 3344 
Q 2469 3275 2778 3144 
L 2778 2419 
L 2447 2419 
Q 2434 2741 2221 2922 
Q 2009 3103 1644 3103 
Q 1281 3103 1095 2975 
Q 909 2847 909 2591 
Q 909 2381 1050 2254 
Q 1191 2128 1613 1997 
L 2069 1856 
Q 2541 1709 2748 1489 
Q 2956 1269 2956 922 
Q 2956 450 2595 179 
Q 2234 -91 1600 -91 
Q 1278 -91 972 -22 
Q 666 47 359 184 
z
" transform="scale(0.015625)"/>
        <path id="DejaVuSerif-74" d="M 691 2988 
L 184 2988 
L 184 3322 
L 691 3322 
L 691 4353 
L 1269 4353 
L 1269 3322 
L 2350 3322 
L 2350 2988 
L 1269 2988 
L 1269 878 
Q 1269 456 1350 337 
Q 1431 219 1650 219 
Q 1875 219 1978 351 
Q 2081 484 2088 781 
L 2522 781 
Q 2497 328 2275 118 
Q 2053 -91 1600 -91 
Q 1103 -91 897 129 
Q 691 350 691 878 
L 691 2988 
z
" transform="scale(0.015625)"/>
        <path id="DejaVuSerif-20" transform="scale(0.015625)"/>
        <path id="DejaVuSerif-31" d="M 909 0 
L 909 331 
L 1722 331 
L 1722 4213 
L 781 3603 
L 781 4013 
L 1919 4750 
L 2350 4750 
L 2350 331 
L 3163 331 
L 3163 0 
L 909 0 
z
" transform="scale(0.015625)"/>
       </defs>
       <use xlink:href="#DejaVuSerif-54"/>
       <use xlink:href="#DejaVuSerif-65" transform="translate(58.949219 0)"/>
       <use xlink:href="#DejaVuSerif-73" transform="translate(118.128906 0)"/>
       <use xlink:href="#DejaVuSerif-74" transform="translate(169.447266 0)"/>
       <use xlink:href="#DejaVuSerif-20" transform="translate(209.632812 0)"/>
       <use xlink:href="#DejaVuSerif-31" transform="translate(241.419922 0)"/>
      </g>
     </g>
    </g>
    <g id="xtick_2">
     <g id="line2d_2">
      <g>
       <use xlink:href="#m02202bf0e8" x="81.18" y="93.96" style="stroke: #000000; stroke-width: 1.5"/>
      </g>
     </g>
     <g id="text_2">
      <!-- Test 2 -->
      <g transform="translate(70.503359 106.278906) scale(0.07 -0.07)">
       <defs>
        <path id="DejaVuSerif-32" d="M 819 3553 
L 469 3553 
L 469 4384 
Q 803 4563 1142 4656 
Q 1481 4750 1806 4750 
Q 2534 4750 2956 4397 
Q 3378 4044 3378 3438 
Q 3378 2753 2422 1800 
Q 2347 1728 2309 1691 
L 1131 513 
L 3078 513 
L 3078 1088 
L 3444 1088 
L 3444 0 
L 434 0 
L 434 341 
L 1850 1753 
Q 2319 2222 2519 2614 
Q 2719 3006 2719 3438 
Q 2719 3909 2473 4175 
Q 2228 4441 1797 4441 
Q 1350 4441 1106 4219 
Q 863 3997 819 3553 
z
" transform="scale(0.015625)"/>
       </defs>
       <use xlink:href="#DejaVuSerif-54"/>
       <use xlink:href="#DejaVuSerif-65" transform="translate(58.949219 0)"/>
       <use xlink:href="#DejaVuSerif-73" transform="translate(118.128906 0)"/>
       <use xlink:href="#DejaVuSerif-74" transform="translate(169.447266 0)"/>
       <use xlink:href="#DejaVuSerif-20" transform="translate(209.632812 0)"/>
       <use xlink:href="#DejaVuSerif-32" transform="translate(241.419922 0)"/>
      </g>
     </g>
    </g>
    <g id="xtick_3">
     <g id="line2d_3">
      <g>
       <use xlink:href="#m02202bf0e8" x="111.78" y="93.96" style="stroke: #000000; stroke-width: 1.5"/>
      </g>
     </g>
     <g id="text_3">
      <!-- Test 3 -->
      <g transform="translate(101.103359 106.278906) scale(0.07 -0.07)">
       <defs>
        <path id="DejaVuSerif-33" d="M 622 4469 
Q 988 4606 1323 4678 
Q 1659 4750 1953 4750 
Q 2638 4750 3022 4454 
Q 3406 4159 3406 3634 
Q 3406 3213 3140 2930 
Q 2875 2647 2388 2547 
Q 2963 2466 3280 2130 
Q 3597 1794 3597 1259 
Q 3597 606 3158 257 
Q 2719 -91 1894 -91 
Q 1528 -91 1179 -12 
Q 831 66 488 225 
L 488 1131 
L 838 1131 
Q 869 681 1141 450 
Q 1413 219 1906 219 
Q 2384 219 2661 495 
Q 2938 772 2938 1253 
Q 2938 1803 2653 2086 
Q 2369 2369 1819 2369 
L 1522 2369 
L 1522 2688 
L 1678 2688 
Q 2225 2688 2498 2914 
Q 2772 3141 2772 3597 
Q 2772 4006 2547 4223 
Q 2322 4441 1900 4441 
Q 1478 4441 1245 4241 
Q 1013 4041 972 3647 
L 622 3647 
L 622 4469 
z
" transform="scale(0.015625)"/>
       </defs>
       <use xlink:href="#DejaVuSerif-54"/>
       <use xlink:href="#DejaVuSerif-65" transform="translate(58.949219 0)"/>
       <use xlink:href="#DejaVuSerif-73" transform="translate(118.128906 0)"/>
       <use xlink:href="#DejaVuSerif-74" transform="translate(169.447266 0)"/>
       <use xlink:href="#DejaVuSerif-20" transform="translate(209.632812 0)"/>
       <use xlink:href="#DejaVuSerif-33" transform="translate(241.419922 0)"/>
      </g>
     </g>
    </g>
    <g id="xtick_4">
     <g id="line2d_4">
      <g>
       <use xlink:href="#m02202bf0e8" x="142.38" y="93.96" style="stroke: #000000; stroke-width: 1.5"/>
      </g>
     </g>
     <g id="text_4">
      <!-- Test 4 -->
      <g transform="translate(131.703359 106.278906) scale(0.07 -0.07)">
       <defs>
        <path id="DejaVuSerif-34" d="M 2234 1581 
L 2234 4063 
L 641 1581 
L 2234 1581 
z
M 3609 0 
L 1484 0 
L 1484 331 
L 2234 331 
L 2234 1247 
L 197 1247 
L 197 1588 
L 2241 4750 
L 2859 4750 
L 2859 1581 
L 3750 1581 
L 3750 1247 
L 2859 1247 
L 2859 331 
L 3609 331 
L 3609 0 
z
" transform="scale(0.015625)"/>
       </defs>
       <use xlink:href="#DejaVuSerif-54"/>
       <use xlink:href="#DejaVuSerif-65" transform="translate(58.949219 0)"/>
       <use xlink:href="#DejaVuSerif-73" transform="translate(118.128906 0)"/>
       <use xlink:href="#DejaVuSerif-74" transform="translate(169.447266 0)"/>
       <use xlink:href="#DejaVuSerif-20" transform="translate(209.632812 0)"/>
       <use xlink:href="#DejaVuSerif-34" transform="translate(241.419922 0)"/>
      </g>
     </g>
    </g>
    <g id="xtick_5">
     <g id="line2d_5">
      <g>
       <use xlink:href="#m02202bf0e8" x="172.98" y="93.96" style="stroke: #000000; stroke-width: 1.5"/>
      </g>
     </g>
     <g id="text_5">
      <!-- Test 5 -->
      <g transform="translate(162.303359 106.278906) scale(0.07 -0.07)">
       <defs>
        <path id="DejaVuSerif-35" d="M 3219 4666 
L 3219 4153 
L 1081 4153 
L 1081 2816 
Q 1244 2928 1461 2984 
Q 1678 3041 1947 3041 
Q 2703 3041 3140 2622 
Q 3578 2203 3578 1478 
Q 3578 738 3136 323 
Q 2694 -91 1894 -91 
Q 1572 -91 1234 -12 
Q 897 66 544 225 
L 544 1131 
L 897 1131 
Q 925 688 1179 453 
Q 1434 219 1894 219 
Q 2388 219 2653 544 
Q 2919 869 2919 1478 
Q 2919 2084 2655 2407 
Q 2391 2731 1894 2731 
Q 1613 2731 1398 2631 
Q 1184 2531 1019 2322 
L 750 2322 
L 750 4666 
L 3219 4666 
z
" transform="scale(0.015625)"/>
       </defs>
       <use xlink:href="#DejaVuSerif-54"/>
       <use xlink:href="#DejaVuSerif-65" transform="translate(58.949219 0)"/>
       <use xlink:href="#DejaVuSerif-73" transform="translate(118.128906 0)"/>
       <use xlink:href="#DejaVuSerif-74" transform="translate(169.447266 0)"/>
       <use xlink:href="#DejaVuSerif-20" transform="translate(209.632812 0)"/>
       <use xlink:href="#DejaVuSerif-35" transform="translate(241.419922 0)"/>
      </g>
     </g>
    </g>
    <g id="xtick_6">
     <g id="line2d_6">
      <g>
       <use xlink:href="#m02202bf0e8" x="203.58" y="93.96" style="stroke: #000000; stroke-width: 1.5"/>
      </g>
     </g>
     <g id="text_6">
      <!-- Test 6 -->
      <g transform="translate(192.903359 106.278906) scale(0.07 -0.07)">
       <defs>
        <path id="DejaVuSerif-36" d="M 2094 219 
Q 2534 219 2771 542 
Q 3009 866 3009 1472 
Q 3009 2078 2771 2401 
Q 2534 2725 2094 2725 
Q 1647 2725 1412 2412 
Q 1178 2100 1178 1509 
Q 1178 888 1415 553 
Q 1653 219 2094 219 
z
M 1075 2569 
Q 1288 2803 1556 2918 
Q 1825 3034 2163 3034 
Q 2859 3034 3264 2615 
Q 3669 2197 3669 1472 
Q 3669 763 3233 336 
Q 2797 -91 2069 -91 
Q 1278 -91 853 498 
Q 428 1088 428 2181 
Q 428 3406 931 4078 
Q 1434 4750 2350 4750 
Q 2597 4750 2869 4703 
Q 3141 4656 3425 4563 
L 3425 3794 
L 3072 3794 
Q 3034 4109 2831 4275 
Q 2628 4441 2284 4441 
Q 1678 4441 1381 3981 
Q 1084 3522 1075 2569 
z
" transform="scale(0.015625)"/>
       </defs>
       <use xlink:href="#DejaVuSerif-54"/>
       <use xlink:href="#DejaVuSerif-65" transform="translate(58.949219 0)"/>
       <use xlink:href="#DejaVuSerif-73" transform="translate(118.128906 0)"/>
       <use xlink:href="#DejaVuSerif-74" transform="translate(169.447266 0)"/>
       <use xlink:href="#DejaVuSerif-20" transform="translate(209.632812 0)"/>
       <use xlink:href="#DejaVuSerif-36" transform="translate(241.419922 0)"/>
      </g>
     </g>
    </g>
    <g id="xtick_7">
     <g id="line2d_7">
      <g>
       <use xlink:href="#m02202bf0e8" x="234.18" y="93.96" style="stroke: #000000; stroke-width: 1.5"/>
      </g>
     </g>
     <g id="text_7">
      <!-- Test 7 -->
      <g transform="translate(223.503359 106.278906) scale(0.07 -0.07)">
       <defs>
        <path id="DejaVuSerif-37" d="M 3609 4347 
L 1784 0 
L 1319 0 
L 3059 4153 
L 903 4153 
L 903 3578 
L 538 3578 
L 538 4666 
L 3609 4666 
L 3609 4347 
z
" transform="scale(0.015625)"/>
       </defs>
       <use xlink:href="#DejaVuSerif-54"/>
       <use xlink:href="#DejaVuSerif-65" transform="translate(58.949219 0)"/>
       <use xlink:href="#DejaVuSerif-73" transform="translate(118.128906 0)"/>
       <use xlink:href="#DejaVuSerif-74" transform="translate(169.447266 0)"/>
       <use xlink:href="#DejaVuSerif-20" transform="translate(209.632812 0)"/>
       <use xlink:href="#DejaVuSerif-37" transform="translate(241.419922 0)"/>
      </g>
     </g>
    </g>
   </g>
   <g id="matplotlib.axis_2">
    <g id="ytick_1">
     <g id="line2d_8">
      <path d="M 35.28 93.96 
L 249.48 93.96 
" clip-path="url(#p625b2df995)" style="fill: none; stroke: #b0b0b0; stroke-width: 1.5; stroke-linecap: square"/>
     </g>
     <g id="line2d_9">
      <defs>
       <path id="m7ad5c5eca9" d="M 0 0 
L -3.5 0 
" style="stroke: #000000; stroke-width: 1.5"/>
      </defs>
      <g>
       <use xlink:href="#m7ad5c5eca9" x="35.28" y="93.96" style="stroke: #000000; stroke-width: 1.5"/>
      </g>
     </g>
     <g id="text_8">
      <!-- −10 -->
      <g transform="translate(13.506719 96.619453) scale(0.07 -0.07)">
       <defs>
        <path id="DejaVuSerif-2212" d="M 678 2259 
L 4684 2259 
L 4684 1753 
L 678 1753 
L 678 2259 
z
" transform="scale(0.015625)"/>
        <path id="DejaVuSerif-30" d="M 2034 219 
Q 2513 219 2750 744 
Q 2988 1269 2988 2328 
Q 2988 3391 2750 3916 
Q 2513 4441 2034 4441 
Q 1556 4441 1318 3916 
Q 1081 3391 1081 2328 
Q 1081 1269 1318 744 
Q 1556 219 2034 219 
z
M 2034 -91 
Q 1275 -91 848 546 
Q 422 1184 422 2328 
Q 422 3475 848 4112 
Q 1275 4750 2034 4750 
Q 2797 4750 3222 4112 
Q 3647 3475 3647 2328 
Q 3647 1184 3222 546 
Q 2797 -91 2034 -91 
z
" transform="scale(0.015625)"/>
       </defs>
       <use xlink:href="#DejaVuSerif-2212"/>
       <use xlink:href="#DejaVuSerif-31" transform="translate(83.789062 0)"/>
       <use xlink:href="#DejaVuSerif-30" transform="translate(147.412109 0)"/>
      </g>
     </g>
    </g>
    <g id="ytick_2">
     <g id="line2d_10">
      <path d="M 35.28 76.248 
L 249.48 76.248 
" clip-path="url(#p625b2df995)" style="fill: none; stroke: #b0b0b0; stroke-width: 1.5; stroke-linecap: square"/>
     </g>
     <g id="line2d_11">
      <g>
       <use xlink:href="#m7ad5c5eca9" x="35.28" y="76.248" style="stroke: #000000; stroke-width: 1.5"/>
      </g>
     </g>
     <g id="text_9">
      <!-- −5 -->
      <g transform="translate(17.960469 78.907453) scale(0.07 -0.07)">
       <use xlink:href="#DejaVuSerif-2212"/>
       <use xlink:href="#DejaVuSerif-35" transform="translate(83.789062 0)"/>
      </g>
     </g>
    </g>
    <g id="ytick_3">
     <g id="line2d_12">
      <path d="M 35.28 58.536 
L 249.48 58.536 
" clip-path="url(#p625b2df995)" style="fill: none; stroke: #b0b0b0; stroke-width: 1.5; stroke-linecap: square"/>
     </g>
     <g id="line2d_13">
      <g>
       <use xlink:href="#m7ad5c5eca9" x="35.28" y="58.536" style="stroke: #000000; stroke-width: 1.5"/>
      </g>
     </g>
     <g id="text_10">
      <!-- 0 -->
      <g transform="translate(23.82625 61.195453) scale(0.07 -0.07)">
       <use xlink:href="#DejaVuSerif-30"/>
      </g>
     </g>
    </g>
    <g id="ytick_4">
     <g id="line2d_14">
      <path d="M 35.28 40.824 
L 249.48 40.824 
" clip-path="url(#p625b2df995)" style="fill: none; stroke: #b0b0b0; stroke-width: 1.5; stroke-linecap: square"/>
     </g>
     <g id="line2d_15">
      <g>
       <use xlink:href="#m7ad5c5eca9" x="35.28" y="40.824" style="stroke: #000000; stroke-width: 1.5"/>
      </g>
     </g>
     <g id="text_11">
      <!-- 5 -->
      <g transform="translate(23.82625 43.483453) scale(0.07 -0.07)">
       <use xlink:href="#DejaVuSerif-35"/>
      </g>
     </g>
    </g>
    <g id="ytick_5">
     <g id="line2d_16">
      <path d="M 35.28 23.112 
L 249.48 23.112 
" clip-path="url(#p625b2df995)" style="fill: none; stroke: #b0b0b0; stroke-width: 1.5; stroke-linecap: square"/>
     </g>
     <g id="line2d_17">
      <g>
       <use xlink:href="#m7ad5c5eca9" x="35.28" y="23.112" style="stroke: #000000; stroke-width: 1.5"/>
      </g>
     </g>
     <g id="text_12">
      <!-- 10 -->
      <g transform="translate(19.3725 25.771453) scale(0.07 -0.07)">
       <use xlink:href="#DejaVuSerif-31"/>
       <use xlink:href="#DejaVuSerif-30" transform="translate(63.623047 0)"/>
      </g>
     </g>
    </g>
    <g id="ytick_6">
     <g id="line2d_18">
      <path d="M 35.28 5.4 
L 249.48 5.4 
" clip-path="url(#p625b2df995)" style="fill: none; stroke: #b0b0b0; stroke-width: 1.5; stroke-linecap: square"/>
     </g>
     <g id="line2d_19">
      <g>
       <use xlink:href="#m7ad5c5eca9" x="35.28" y="5.4" style="stroke: #000000; stroke-width: 1.5"/>
      </g>
     </g>
     <g id="text_13">
      <!-- 15 -->
      <g transform="translate(19.3725 8.059453) scale(0.07 -0.07)">
       <use xlink:href="#DejaVuSerif-31"/>
       <use xlink:href="#DejaVuSerif-35" transform="translate(63.623047 0)"/>
      </g>
     </g>
    </g>
    <g id="text_14">
     <!-- Accuracy ($10^{-3}$) -->
     <g transform="translate(7.896719 78.135) rotate(-90) scale(0.07 -0.07)">
      <defs>
       <path id="DejaVuSerif-41" d="M 1281 1691 
L 2994 1691 
L 2138 3909 
L 1281 1691 
z
M -38 0 
L -38 331 
L 372 331 
L 2034 4666 
L 2559 4666 
L 4225 331 
L 4684 331 
L 4684 0 
L 2988 0 
L 2988 331 
L 3506 331 
L 3116 1356 
L 1153 1356 
L 763 331 
L 1275 331 
L 1275 0 
L -38 0 
z
" transform="scale(0.015625)"/>
       <path id="DejaVuSerif-63" d="M 3291 997 
Q 3169 466 2822 187 
Q 2475 -91 1925 -91 
Q 1200 -91 759 389 
Q 319 869 319 1663 
Q 319 2459 759 2936 
Q 1200 3413 1925 3413 
Q 2241 3413 2553 3339 
Q 2866 3266 3181 3116 
L 3181 2266 
L 2847 2266 
Q 2781 2703 2561 2903 
Q 2341 3103 1931 3103 
Q 1466 3103 1228 2742 
Q 991 2381 991 1663 
Q 991 944 1227 581 
Q 1463 219 1931 219 
Q 2303 219 2525 412 
Q 2747 606 2828 997 
L 3291 997 
z
" transform="scale(0.015625)"/>
       <path id="DejaVuSerif-75" d="M 2266 3322 
L 3341 3322 
L 3341 331 
L 3884 331 
L 3884 0 
L 2766 0 
L 2766 588 
Q 2606 256 2353 82 
Q 2100 -91 1766 -91 
Q 1213 -91 952 223 
Q 691 538 691 1209 
L 691 2988 
L 172 2988 
L 172 3322 
L 1269 3322 
L 1269 1388 
Q 1269 781 1417 556 
Q 1566 331 1947 331 
Q 2347 331 2556 625 
Q 2766 919 2766 1478 
L 2766 2988 
L 2266 2988 
L 2266 3322 
z
" transform="scale(0.015625)"/>
       <path id="DejaVuSerif-72" d="M 3059 3328 
L 3059 2497 
L 2728 2497 
Q 2713 2744 2591 2866 
Q 2469 2988 2234 2988 
Q 1809 2988 1582 2694 
Q 1356 2400 1356 1850 
L 1356 331 
L 2022 331 
L 2022 0 
L 263 0 
L 263 331 
L 781 331 
L 781 2994 
L 231 2994 
L 231 3322 
L 1356 3322 
L 1356 2731 
Q 1525 3078 1790 3245 
Q 2056 3413 2438 3413 
Q 2578 3413 2733 3391 
Q 2888 3369 3059 3328 
z
" transform="scale(0.015625)"/>
       <path id="DejaVuSerif-61" d="M 2547 1044 
L 2547 1747 
L 1806 1747 
Q 1378 1747 1168 1562 
Q 959 1378 959 997 
Q 959 650 1171 447 
Q 1384 244 1747 244 
Q 2106 244 2326 466 
Q 2547 688 2547 1044 
z
M 3122 2075 
L 3122 331 
L 3634 331 
L 3634 0 
L 2547 0 
L 2547 359 
Q 2356 128 2106 18 
Q 1856 -91 1522 -91 
Q 969 -91 644 203 
Q 319 497 319 997 
Q 319 1513 691 1797 
Q 1063 2081 1741 2081 
L 2547 2081 
L 2547 2309 
Q 2547 2688 2317 2895 
Q 2088 3103 1672 3103 
Q 1328 3103 1125 2947 
Q 922 2791 872 2484 
L 575 2484 
L 575 3156 
Q 875 3284 1158 3348 
Q 1441 3413 1709 3413 
Q 2400 3413 2761 3070 
Q 3122 2728 3122 2075 
z
" transform="scale(0.015625)"/>
       <path id="DejaVuSerif-79" d="M 1381 -609 
L 1600 -56 
L 359 2988 
L -19 2988 
L -19 3322 
L 1509 3322 
L 1509 2988 
L 978 2988 
L 1913 703 
L 2847 2988 
L 2350 2988 
L 2350 3322 
L 3597 3322 
L 3597 2988 
L 3225 2988 
L 1703 -750 
Q 1547 -1138 1356 -1280 
Q 1166 -1422 819 -1422 
Q 672 -1422 517 -1397 
Q 363 -1372 206 -1325 
L 206 -691 
L 500 -691 
Q 519 -903 608 -995 
Q 697 -1088 884 -1088 
Q 1056 -1088 1161 -992 
Q 1266 -897 1381 -609 
z
" transform="scale(0.015625)"/>
       <path id="DejaVuSerif-28" d="M 2041 -997 
Q 1281 -656 893 83 
Q 506 822 506 1931 
Q 506 3044 893 3783 
Q 1281 4522 2041 4863 
L 2041 4556 
Q 1559 4225 1350 3623 
Q 1141 3022 1141 1931 
Q 1141 844 1350 242 
Q 1559 -359 2041 -691 
L 2041 -997 
z
" transform="scale(0.015625)"/>
       <path id="DejaVuSerif-29" d="M 453 -997 
L 453 -691 
Q 934 -359 1145 242 
Q 1356 844 1356 1931 
Q 1356 3022 1145 3623 
Q 934 4225 453 4556 
L 453 4863 
Q 1216 4522 1603 3783 
Q 1991 3044 1991 1931 
Q 1991 822 1603 83 
Q 1216 -656 453 -997 
z
" transform="scale(0.015625)"/>
      </defs>
      <use xlink:href="#DejaVuSerif-41" transform="translate(0 0.7125)"/>
      <use xlink:href="#DejaVuSerif-63" transform="translate(72.216797 0.7125)"/>
      <use xlink:href="#DejaVuSerif-63" transform="translate(128.222656 0.7125)"/>
      <use xlink:href="#DejaVuSerif-75" transform="translate(184.228516 0.7125)"/>
      <use xlink:href="#DejaVuSerif-72" transform="translate(248.632812 0.7125)"/>
      <use xlink:href="#DejaVuSerif-61" transform="translate(296.435547 0.7125)"/>
      <use xlink:href="#DejaVuSerif-63" transform="translate(356.054688 0.7125)"/>
      <use xlink:href="#DejaVuSerif-79" transform="translate(412.060547 0.7125)"/>
      <use xlink:href="#DejaVuSerif-20" transform="translate(468.554688 0.7125)"/>
      <use xlink:href="#DejaVuSerif-28" transform="translate(500.341797 0.7125)"/>
      <use xlink:href="#DejaVuSerif-31" transform="translate(539.355469 0.7125)"/>
      <use xlink:href="#DejaVuSerif-30" transform="translate(602.978516 0.7125)"/>
      <use xlink:href="#DejaVuSerif-2212" transform="translate(667.509922 37.046875) scale(0.7)"/>
      <use xlink:href="#DejaVuSerif-33" transform="translate(726.162266 37.046875) scale(0.7)"/>
      <use xlink:href="#DejaVuSerif-29" transform="translate(773.293711 0.7125)"/>
     </g>
    </g>
   </g>
   <g id="FillBetweenPolyCollection_1">
    <defs>
     <path id="m62215e1b34" d="M 53.179234 -22.621758 
L 47.980766 -22.621758 
L 47.833319 -23.16624 
L 47.687228 -23.710721 
L 47.54343 -24.255203 
L 47.402849 -24.799685 
L 47.266385 -25.344166 
L 47.134893 -25.888648 
L 47.009168 -26.43313 
L 46.889926 -26.977612 
L 46.777789 -27.522093 
L 46.673269 -28.066575 
L 46.576756 -28.611057 
L 46.488508 -29.155539 
L 46.408636 -29.70002 
L 46.337107 -30.244502 
L 46.273733 -30.788984 
L 46.218175 -31.333465 
L 46.169948 -31.877947 
L 46.128423 -32.422429 
L 46.092844 -32.966911 
L 46.062339 -33.511392 
L 46.035935 -34.055874 
L 46.012586 -34.600356 
L 45.991187 -35.144837 
L 45.970605 -35.689319 
L 45.949707 -36.233801 
L 45.927381 -36.778283 
L 45.902574 -37.322764 
L 45.874311 -37.867246 
L 45.841729 -38.411728 
L 45.804098 -38.956209 
L 45.760847 -39.500691 
L 45.71158 -40.045173 
L 45.656096 -40.589655 
L 45.594399 -41.134136 
L 45.526704 -41.678618 
L 45.453438 -42.2231 
L 45.375242 -42.767581 
L 45.292952 -43.312063 
L 45.207596 -43.856545 
L 45.120367 -44.401027 
L 45.032601 -44.945508 
L 44.945751 -45.48999 
L 44.861356 -46.034472 
L 44.781005 -46.578954 
L 44.706304 -47.123435 
L 44.638841 -47.667917 
L 44.580149 -48.212399 
L 44.531671 -48.75688 
L 44.494732 -49.301362 
L 44.470508 -49.845844 
L 44.46 -50.390326 
L 44.464016 -50.934807 
L 44.483155 -51.479289 
L 44.517795 -52.023771 
L 44.56809 -52.568252 
L 44.63397 -53.112734 
L 44.715148 -53.657216 
L 44.811124 -54.201698 
L 44.921208 -54.746179 
L 45.044533 -55.290661 
L 45.180076 -55.835143 
L 45.326683 -56.379624 
L 45.483095 -56.924106 
L 45.647969 -57.468588 
L 45.819911 -58.01307 
L 45.997493 -58.557551 
L 46.179284 -59.102033 
L 46.363868 -59.646515 
L 46.549868 -60.190996 
L 46.735961 -60.735478 
L 46.920896 -61.27996 
L 47.103508 -61.824442 
L 47.282727 -62.368923 
L 47.457586 -62.913405 
L 47.627232 -63.457887 
L 47.790924 -64.002369 
L 47.948037 -64.54685 
L 48.098066 -65.091332 
L 48.240619 -65.635814 
L 48.375419 -66.180295 
L 48.502298 -66.724777 
L 48.621191 -67.269259 
L 48.732133 -67.813741 
L 48.83525 -68.358222 
L 48.930753 -68.902704 
L 49.018928 -69.447186 
L 49.100129 -69.991667 
L 49.174766 -70.536149 
L 49.243297 -71.080631 
L 49.306219 -71.625113 
L 49.364054 -72.169594 
L 49.41734 -72.714076 
L 49.466621 -73.258558 
L 49.512437 -73.803039 
L 49.555313 -74.347521 
L 49.59575 -74.892003 
L 49.634218 -75.436485 
L 49.671146 -75.980966 
L 49.706921 -76.525448 
L 51.453079 -76.525448 
L 51.453079 -76.525448 
L 51.488854 -75.980966 
L 51.525782 -75.436485 
L 51.56425 -74.892003 
L 51.604687 -74.347521 
L 51.647563 -73.803039 
L 51.693379 -73.258558 
L 51.74266 -72.714076 
L 51.795946 -72.169594 
L 51.853781 -71.625113 
L 51.916703 -71.080631 
L 51.985234 -70.536149 
L 52.059871 -69.991667 
L 52.141072 -69.447186 
L 52.229247 -68.902704 
L 52.32475 -68.358222 
L 52.427867 -67.813741 
L 52.538809 -67.269259 
L 52.657702 -66.724777 
L 52.784581 -66.180295 
L 52.919381 -65.635814 
L 53.061934 -65.091332 
L 53.211963 -64.54685 
L 53.369076 -64.002369 
L 53.532768 -63.457887 
L 53.702414 -62.913405 
L 53.877273 -62.368923 
L 54.056492 -61.824442 
L 54.239104 -61.27996 
L 54.424039 -60.735478 
L 54.610132 -60.190996 
L 54.796132 -59.646515 
L 54.980716 -59.102033 
L 55.162507 -58.557551 
L 55.340089 -58.01307 
L 55.512031 -57.468588 
L 55.676905 -56.924106 
L 55.833317 -56.379624 
L 55.979924 -55.835143 
L 56.115467 -55.290661 
L 56.238792 -54.746179 
L 56.348876 -54.201698 
L 56.444852 -53.657216 
L 56.52603 -53.112734 
L 56.59191 -52.568252 
L 56.642205 -52.023771 
L 56.676845 -51.479289 
L 56.695984 -50.934807 
L 56.7 -50.390326 
L 56.689492 -49.845844 
L 56.665268 -49.301362 
L 56.628329 -48.75688 
L 56.579851 -48.212399 
L 56.521159 -47.667917 
L 56.453696 -47.123435 
L 56.378995 -46.578954 
L 56.298644 -46.034472 
L 56.214249 -45.48999 
L 56.127399 -44.945508 
L 56.039633 -44.401027 
L 55.952404 -43.856545 
L 55.867048 -43.312063 
L 55.784758 -42.767581 
L 55.706562 -42.2231 
L 55.633296 -41.678618 
L 55.565601 -41.134136 
L 55.503904 -40.589655 
L 55.44842 -40.045173 
L 55.399153 -39.500691 
L 55.355902 -38.956209 
L 55.318271 -38.411728 
L 55.285689 -37.867246 
L 55.257426 -37.322764 
L 55.232619 -36.778283 
L 55.210293 -36.233801 
L 55.189395 -35.689319 
L 55.168813 -35.144837 
L 55.147414 -34.600356 
L 55.124065 -34.055874 
L 55.097661 -33.511392 
L 55.067156 -32.966911 
L 55.031577 -32.422429 
L 54.990052 -31.877947 
L 54.941825 -31.333465 
L 54.886267 -30.788984 
L 54.822893 -30.244502 
L 54.751364 -29.70002 
L 54.671492 -29.155539 
L 54.583244 -28.611057 
L 54.486731 -28.066575 
L 54.382211 -27.522093 
L 54.270074 -26.977612 
L 54.150832 -26.43313 
L 54.025107 -25.888648 
L 53.893615 -25.344166 
L 53.757151 -24.799685 
L 53.61657 -24.255203 
L 53.472772 -23.710721 
L 53.326681 -23.16624 
L 53.179234 -22.621758 
z
" style="stroke: #000000; stroke-width: 1.5"/>
    </defs>
    <g clip-path="url(#p625b2df995)">
     <use xlink:href="#m62215e1b34" x="0" y="108" style="fill: #dda0dd; stroke: #000000; stroke-width: 1.5"/>
    </g>
   </g>
   <g id="FillBetweenPolyCollection_2">
    <defs>
     <path id="m87b6a89993" d="M 81.974065 -64.400249 
L 80.385935 -64.400249 
L 80.361219 -64.673837 
L 80.336006 -64.947425 
L 80.309816 -65.221013 
L 80.282109 -65.494601 
L 80.252299 -65.768189 
L 80.21976 -66.041777 
L 80.183845 -66.315365 
L 80.143898 -66.588953 
L 80.09927 -66.862541 
L 80.049337 -67.136129 
L 79.993512 -67.409718 
L 79.931268 -67.683306 
L 79.862144 -67.956894 
L 79.785766 -68.230482 
L 79.701852 -68.50407 
L 79.610226 -68.777658 
L 79.51082 -69.051246 
L 79.40368 -69.324834 
L 79.288967 -69.598422 
L 79.166955 -69.87201 
L 79.038023 -70.145598 
L 78.902652 -70.419186 
L 78.761414 -70.692774 
L 78.61496 -70.966362 
L 78.464008 -71.23995 
L 78.30933 -71.513538 
L 78.151736 -71.787126 
L 77.992062 -72.060714 
L 77.831155 -72.334303 
L 77.66986 -72.607891 
L 77.509005 -72.881479 
L 77.349398 -73.155067 
L 77.191807 -73.428655 
L 77.03696 -73.702243 
L 76.885537 -73.975831 
L 76.738161 -74.249419 
L 76.595398 -74.523007 
L 76.457756 -74.796595 
L 76.325679 -75.070183 
L 76.199551 -75.343771 
L 76.079695 -75.617359 
L 75.966374 -75.890947 
L 75.859793 -76.164535 
L 75.7601 -76.438123 
L 75.667391 -76.711711 
L 75.581712 -76.9853 
L 75.503059 -77.258888 
L 75.431389 -77.532476 
L 75.366614 -77.806064 
L 75.308616 -78.079652 
L 75.257243 -78.35324 
L 75.212318 -78.626828 
L 75.173647 -78.900416 
L 75.141017 -79.174004 
L 75.114211 -79.447592 
L 75.093008 -79.72118 
L 75.077188 -79.994768 
L 75.066541 -80.268356 
L 75.060871 -80.541944 
L 75.06 -80.815532 
L 75.063769 -81.08912 
L 75.072045 -81.362708 
L 75.08472 -81.636296 
L 75.101713 -81.909885 
L 75.122971 -82.183473 
L 75.148466 -82.457061 
L 75.178193 -82.730649 
L 75.212172 -83.004237 
L 75.250439 -83.277825 
L 75.293048 -83.551413 
L 75.340063 -83.825001 
L 75.391558 -84.098589 
L 75.44761 -84.372177 
L 75.508297 -84.645765 
L 75.573696 -84.919353 
L 75.643874 -85.192941 
L 75.718894 -85.466529 
L 75.798802 -85.740117 
L 75.883634 -86.013705 
L 75.973405 -86.287293 
L 76.068113 -86.560881 
L 76.167735 -86.83447 
L 76.272226 -87.108058 
L 76.381511 -87.381646 
L 76.495495 -87.655234 
L 76.614047 -87.928822 
L 76.737012 -88.20241 
L 76.864198 -88.475998 
L 76.995381 -88.749586 
L 77.130303 -89.023174 
L 77.268669 -89.296762 
L 77.410148 -89.57035 
L 77.554374 -89.843938 
L 77.700944 -90.117526 
L 77.849425 -90.391114 
L 77.999349 -90.664702 
L 78.150222 -90.93829 
L 78.301526 -91.211878 
L 78.452723 -91.485466 
L 83.907277 -91.485466 
L 83.907277 -91.485466 
L 84.058474 -91.211878 
L 84.209778 -90.93829 
L 84.360651 -90.664702 
L 84.510575 -90.391114 
L 84.659056 -90.117526 
L 84.805626 -89.843938 
L 84.949852 -89.57035 
L 85.091331 -89.296762 
L 85.229697 -89.023174 
L 85.364619 -88.749586 
L 85.495802 -88.475998 
L 85.622988 -88.20241 
L 85.745953 -87.928822 
L 85.864505 -87.655234 
L 85.978489 -87.381646 
L 86.087774 -87.108058 
L 86.192265 -86.83447 
L 86.291887 -86.560881 
L 86.386595 -86.287293 
L 86.476366 -86.013705 
L 86.561198 -85.740117 
L 86.641106 -85.466529 
L 86.716126 -85.192941 
L 86.786304 -84.919353 
L 86.851703 -84.645765 
L 86.91239 -84.372177 
L 86.968442 -84.098589 
L 87.019937 -83.825001 
L 87.066952 -83.551413 
L 87.109561 -83.277825 
L 87.147828 -83.004237 
L 87.181807 -82.730649 
L 87.211534 -82.457061 
L 87.237029 -82.183473 
L 87.258287 -81.909885 
L 87.27528 -81.636296 
L 87.287955 -81.362708 
L 87.296231 -81.08912 
L 87.3 -80.815532 
L 87.299129 -80.541944 
L 87.293459 -80.268356 
L 87.282812 -79.994768 
L 87.266992 -79.72118 
L 87.245789 -79.447592 
L 87.218983 -79.174004 
L 87.186353 -78.900416 
L 87.147682 -78.626828 
L 87.102757 -78.35324 
L 87.051384 -78.079652 
L 86.993386 -77.806064 
L 86.928611 -77.532476 
L 86.856941 -77.258888 
L 86.778288 -76.9853 
L 86.692609 -76.711711 
L 86.5999 -76.438123 
L 86.500207 -76.164535 
L 86.393626 -75.890947 
L 86.280305 -75.617359 
L 86.160449 -75.343771 
L 86.034321 -75.070183 
L 85.902244 -74.796595 
L 85.764602 -74.523007 
L 85.621839 -74.249419 
L 85.474463 -73.975831 
L 85.32304 -73.702243 
L 85.168193 -73.428655 
L 85.010602 -73.155067 
L 84.850995 -72.881479 
L 84.69014 -72.607891 
L 84.528845 -72.334303 
L 84.367938 -72.060714 
L 84.208264 -71.787126 
L 84.05067 -71.513538 
L 83.895992 -71.23995 
L 83.74504 -70.966362 
L 83.598586 -70.692774 
L 83.457348 -70.419186 
L 83.321977 -70.145598 
L 83.193045 -69.87201 
L 83.071033 -69.598422 
L 82.95632 -69.324834 
L 82.84918 -69.051246 
L 82.749774 -68.777658 
L 82.658148 -68.50407 
L 82.574234 -68.230482 
L 82.497856 -67.956894 
L 82.428732 -67.683306 
L 82.366488 -67.409718 
L 82.310663 -67.136129 
L 82.26073 -66.862541 
L 82.216102 -66.588953 
L 82.176155 -66.315365 
L 82.14024 -66.041777 
L 82.107701 -65.768189 
L 82.077891 -65.494601 
L 82.050184 -65.221013 
L 82.023994 -64.947425 
L 81.998781 -64.673837 
L 81.974065 -64.400249 
z
" style="stroke: #000000; stroke-width: 1.5"/>
    </defs>
    <g clip-path="url(#p625b2df995)">
     <use xlink:href="#m87b6a89993" x="0" y="108" style="fill: #dda0dd; stroke: #000000; stroke-width: 1.5"/>
    </g>
   </g>
   <g id="FillBetweenPolyCollection_3">
    <defs>
     <path id="m0172144cfe" d="M 116.059927 -45.488703 
L 107.500073 -45.488703 
L 107.350079 -45.811507 
L 107.20628 -46.134312 
L 107.06916 -46.457116 
L 106.939109 -46.77992 
L 106.816423 -47.102724 
L 106.701302 -47.425528 
L 106.593851 -47.748333 
L 106.494084 -48.071137 
L 106.401931 -48.393941 
L 106.317242 -48.716745 
L 106.239799 -49.039549 
L 106.169325 -49.362354 
L 106.105495 -49.685158 
L 106.047943 -50.007962 
L 105.99628 -50.330766 
L 105.950098 -50.65357 
L 105.908982 -50.976374 
L 105.872522 -51.299179 
L 105.840315 -51.621983 
L 105.811977 -51.944787 
L 105.787142 -52.267591 
L 105.76547 -52.590395 
L 105.746647 -52.9132 
L 105.730386 -53.236004 
L 105.716426 -53.558808 
L 105.70453 -53.881612 
L 105.694485 -54.204416 
L 105.686096 -54.527221 
L 105.679186 -54.850025 
L 105.673594 -55.172829 
L 105.669168 -55.495633 
L 105.665769 -55.818437 
L 105.663267 -56.141242 
L 105.661543 -56.464046 
L 105.660486 -56.78685 
L 105.66 -57.109654 
L 105.660002 -57.432458 
L 105.660427 -57.755263 
L 105.661234 -58.078067 
L 105.662408 -58.400871 
L 105.663963 -58.723675 
L 105.665948 -59.046479 
L 105.668452 -59.369283 
L 105.671604 -59.692088 
L 105.675577 -60.014892 
L 105.680589 -60.337696 
L 105.686901 -60.6605 
L 105.694819 -60.983304 
L 105.70469 -61.306109 
L 105.716894 -61.628913 
L 105.731845 -61.951717 
L 105.749979 -62.274521 
L 105.771748 -62.597325 
L 105.797612 -62.92013 
L 105.82803 -63.242934 
L 105.863448 -63.565738 
L 105.904288 -63.888542 
L 105.950945 -64.211346 
L 106.003767 -64.534151 
L 106.063056 -64.856955 
L 106.129052 -65.179759 
L 106.20193 -65.502563 
L 106.281792 -65.825367 
L 106.368663 -66.148171 
L 106.462489 -66.470976 
L 106.563133 -66.79378 
L 106.670376 -67.116584 
L 106.783918 -67.439388 
L 106.903384 -67.762192 
L 107.028324 -68.084997 
L 107.158223 -68.407801 
L 107.292507 -68.730605 
L 107.430553 -69.053409 
L 107.571696 -69.376213 
L 107.715243 -69.699018 
L 107.860481 -70.021822 
L 108.006689 -70.344626 
L 108.153151 -70.66743 
L 108.299167 -70.990234 
L 108.44406 -71.313039 
L 108.587191 -71.635843 
L 108.727966 -71.958647 
L 108.865842 -72.281451 
L 109.000339 -72.604255 
L 109.131037 -72.92706 
L 109.25759 -73.249864 
L 109.379719 -73.572668 
L 109.497218 -73.895472 
L 109.60995 -74.218276 
L 109.717846 -74.54108 
L 109.820903 -74.863885 
L 109.919172 -75.186689 
L 110.012761 -75.509493 
L 110.101822 -75.832297 
L 110.186543 -76.155101 
L 110.267144 -76.477906 
L 110.343866 -76.80071 
L 110.416963 -77.123514 
L 110.486697 -77.446318 
L 113.073303 -77.446318 
L 113.073303 -77.446318 
L 113.143037 -77.123514 
L 113.216134 -76.80071 
L 113.292856 -76.477906 
L 113.373457 -76.155101 
L 113.458178 -75.832297 
L 113.547239 -75.509493 
L 113.640828 -75.186689 
L 113.739097 -74.863885 
L 113.842154 -74.54108 
L 113.95005 -74.218276 
L 114.062782 -73.895472 
L 114.180281 -73.572668 
L 114.30241 -73.249864 
L 114.428963 -72.92706 
L 114.559661 -72.604255 
L 114.694158 -72.281451 
L 114.832034 -71.958647 
L 114.972809 -71.635843 
L 115.11594 -71.313039 
L 115.260833 -70.990234 
L 115.406849 -70.66743 
L 115.553311 -70.344626 
L 115.699519 -70.021822 
L 115.844757 -69.699018 
L 115.988304 -69.376213 
L 116.129447 -69.053409 
L 116.267493 -68.730605 
L 116.401777 -68.407801 
L 116.531676 -68.084997 
L 116.656616 -67.762192 
L 116.776082 -67.439388 
L 116.889624 -67.116584 
L 116.996867 -66.79378 
L 117.097511 -66.470976 
L 117.191337 -66.148171 
L 117.278208 -65.825367 
L 117.35807 -65.502563 
L 117.430948 -65.179759 
L 117.496944 -64.856955 
L 117.556233 -64.534151 
L 117.609055 -64.211346 
L 117.655712 -63.888542 
L 117.696552 -63.565738 
L 117.73197 -63.242934 
L 117.762388 -62.92013 
L 117.788252 -62.597325 
L 117.810021 -62.274521 
L 117.828155 -61.951717 
L 117.843106 -61.628913 
L 117.85531 -61.306109 
L 117.865181 -60.983304 
L 117.873099 -60.6605 
L 117.879411 -60.337696 
L 117.884423 -60.014892 
L 117.888396 -59.692088 
L 117.891548 -59.369283 
L 117.894052 -59.046479 
L 117.896037 -58.723675 
L 117.897592 -58.400871 
L 117.898766 -58.078067 
L 117.899573 -57.755263 
L 117.899998 -57.432458 
L 117.9 -57.109654 
L 117.899514 -56.78685 
L 117.898457 -56.464046 
L 117.896733 -56.141242 
L 117.894231 -55.818437 
L 117.890832 -55.495633 
L 117.886406 -55.172829 
L 117.880814 -54.850025 
L 117.873904 -54.527221 
L 117.865515 -54.204416 
L 117.85547 -53.881612 
L 117.843574 -53.558808 
L 117.829614 -53.236004 
L 117.813353 -52.9132 
L 117.79453 -52.590395 
L 117.772858 -52.267591 
L 117.748023 -51.944787 
L 117.719685 -51.621983 
L 117.687478 -51.299179 
L 117.651018 -50.976374 
L 117.609902 -50.65357 
L 117.56372 -50.330766 
L 117.512057 -50.007962 
L 117.454505 -49.685158 
L 117.390675 -49.362354 
L 117.320201 -49.039549 
L 117.242758 -48.716745 
L 117.158069 -48.393941 
L 117.065916 -48.071137 
L 116.966149 -47.748333 
L 116.858698 -47.425528 
L 116.743577 -47.102724 
L 116.620891 -46.77992 
L 116.49084 -46.457116 
L 116.35372 -46.134312 
L 116.209921 -45.811507 
L 116.059927 -45.488703 
z
" style="stroke: #000000; stroke-width: 1.5"/>
    </defs>
    <g clip-path="url(#p625b2df995)">
     <use xlink:href="#m0172144cfe" x="0" y="108" style="fill: #dda0dd; stroke: #000000; stroke-width: 1.5"/>
    </g>
   </g>
   <g id="FillBetweenPolyCollection_4">
    <defs>
     <path id="m6c48cbb6f5" d="M 144.193142 -24.243842 
L 140.566858 -24.243842 
L 140.495535 -24.74726 
L 140.425328 -25.250678 
L 140.356334 -25.754095 
L 140.288616 -26.257513 
L 140.222197 -26.760931 
L 140.157062 -27.264348 
L 140.093159 -27.767766 
L 140.030396 -28.271183 
L 139.968643 -28.774601 
L 139.907739 -29.278019 
L 139.847486 -29.781436 
L 139.787657 -30.284854 
L 139.728002 -30.788272 
L 139.668243 -31.291689 
L 139.60809 -31.795107 
L 139.547236 -32.298525 
L 139.485367 -32.801942 
L 139.422167 -33.30536 
L 139.357322 -33.808778 
L 139.29053 -34.312195 
L 139.221501 -34.815613 
L 139.149966 -35.319031 
L 139.075686 -35.822448 
L 138.998453 -36.325866 
L 138.918097 -36.829283 
L 138.834493 -37.332701 
L 138.747566 -37.836119 
L 138.657292 -38.339536 
L 138.563706 -38.842954 
L 138.466902 -39.346372 
L 138.367036 -39.849789 
L 138.264329 -40.353207 
L 138.159065 -40.856625 
L 138.051588 -41.360042 
L 137.942305 -41.86346 
L 137.83168 -42.366878 
L 137.720227 -42.870295 
L 137.608511 -43.373713 
L 137.497133 -43.877131 
L 137.386731 -44.380548 
L 137.277965 -44.883966 
L 137.171514 -45.387384 
L 137.068062 -45.890801 
L 136.968291 -46.394219 
L 136.872872 -46.897636 
L 136.782454 -47.401054 
L 136.697658 -47.904472 
L 136.619064 -48.407889 
L 136.54721 -48.911307 
L 136.482579 -49.414725 
L 136.425599 -49.918142 
L 136.376631 -50.42156 
L 136.335975 -50.924978 
L 136.30386 -51.428395 
L 136.280444 -51.931813 
L 136.265818 -52.435231 
L 136.26 -52.938648 
L 136.262943 -53.442066 
L 136.274534 -53.945484 
L 136.294597 -54.448901 
L 136.322899 -54.952319 
L 136.359152 -55.455736 
L 136.40302 -55.959154 
L 136.454123 -56.462572 
L 136.512043 -56.965989 
L 136.576328 -57.469407 
L 136.646503 -57.972825 
L 136.722068 -58.476242 
L 136.802512 -58.97966 
L 136.887316 -59.483078 
L 136.975958 -59.986495 
L 137.067921 -60.489913 
L 137.162697 -60.993331 
L 137.259799 -61.496748 
L 137.358757 -62.000166 
L 137.459133 -62.503584 
L 137.56052 -63.007001 
L 137.662549 -63.510419 
L 137.764892 -64.013836 
L 137.867266 -64.517254 
L 137.969435 -65.020672 
L 138.071212 -65.524089 
L 138.172458 -66.027507 
L 138.273083 -66.530925 
L 138.373043 -67.034342 
L 138.47234 -67.53776 
L 138.571014 -68.041178 
L 138.669142 -68.544595 
L 138.766829 -69.048013 
L 138.864205 -69.551431 
L 138.961414 -70.054848 
L 139.058611 -70.558266 
L 139.155951 -71.061684 
L 139.253582 -71.565101 
L 139.35164 -72.068519 
L 139.450237 -72.571937 
L 139.549462 -73.075354 
L 139.64937 -73.578772 
L 139.749978 -74.082189 
L 145.010022 -74.082189 
L 145.010022 -74.082189 
L 145.11063 -73.578772 
L 145.210538 -73.075354 
L 145.309763 -72.571937 
L 145.40836 -72.068519 
L 145.506418 -71.565101 
L 145.604049 -71.061684 
L 145.701389 -70.558266 
L 145.798586 -70.054848 
L 145.895795 -69.551431 
L 145.993171 -69.048013 
L 146.090858 -68.544595 
L 146.188986 -68.041178 
L 146.28766 -67.53776 
L 146.386957 -67.034342 
L 146.486917 -66.530925 
L 146.587542 -66.027507 
L 146.688788 -65.524089 
L 146.790565 -65.020672 
L 146.892734 -64.517254 
L 146.995108 -64.013836 
L 147.097451 -63.510419 
L 147.19948 -63.007001 
L 147.300867 -62.503584 
L 147.401243 -62.000166 
L 147.500201 -61.496748 
L 147.597303 -60.993331 
L 147.692079 -60.489913 
L 147.784042 -59.986495 
L 147.872684 -59.483078 
L 147.957488 -58.97966 
L 148.037932 -58.476242 
L 148.113497 -57.972825 
L 148.183672 -57.469407 
L 148.247957 -56.965989 
L 148.305877 -56.462572 
L 148.35698 -55.959154 
L 148.400848 -55.455736 
L 148.437101 -54.952319 
L 148.465403 -54.448901 
L 148.485466 -53.945484 
L 148.497057 -53.442066 
L 148.5 -52.938648 
L 148.494182 -52.435231 
L 148.479556 -51.931813 
L 148.45614 -51.428395 
L 148.424025 -50.924978 
L 148.383369 -50.42156 
L 148.334401 -49.918142 
L 148.277421 -49.414725 
L 148.21279 -48.911307 
L 148.140936 -48.407889 
L 148.062342 -47.904472 
L 147.977546 -47.401054 
L 147.887128 -46.897636 
L 147.791709 -46.394219 
L 147.691938 -45.890801 
L 147.588486 -45.387384 
L 147.482035 -44.883966 
L 147.373269 -44.380548 
L 147.262867 -43.877131 
L 147.151489 -43.373713 
L 147.039773 -42.870295 
L 146.92832 -42.366878 
L 146.817695 -41.86346 
L 146.708412 -41.360042 
L 146.600935 -40.856625 
L 146.495671 -40.353207 
L 146.392964 -39.849789 
L 146.293098 -39.346372 
L 146.196294 -38.842954 
L 146.102708 -38.339536 
L 146.012434 -37.836119 
L 145.925507 -37.332701 
L 145.841903 -36.829283 
L 145.761547 -36.325866 
L 145.684314 -35.822448 
L 145.610034 -35.319031 
L 145.538499 -34.815613 
L 145.46947 -34.312195 
L 145.402678 -33.808778 
L 145.337833 -33.30536 
L 145.274633 -32.801942 
L 145.212764 -32.298525 
L 145.15191 -31.795107 
L 145.091757 -31.291689 
L 145.031998 -30.788272 
L 144.972343 -30.284854 
L 144.912514 -29.781436 
L 144.852261 -29.278019 
L 144.791357 -28.774601 
L 144.729604 -28.271183 
L 144.666841 -27.767766 
L 144.602938 -27.264348 
L 144.537803 -26.760931 
L 144.471384 -26.257513 
L 144.403666 -25.754095 
L 144.334672 -25.250678 
L 144.264465 -24.74726 
L 144.193142 -24.243842 
z
" style="stroke: #000000; stroke-width: 1.5"/>
    </defs>
    <g clip-path="url(#p625b2df995)">
     <use xlink:href="#m6c48cbb6f5" x="0" y="108" style="fill: #dda0dd; stroke: #000000; stroke-width: 1.5"/>
    </g>
   </g>
   <g id="FillBetweenPolyCollection_5">
    <defs>
     <path id="ma93f60ee0a" d="M 174.347542 -54.622967 
L 171.612458 -54.622967 
L 171.521635 -54.924689 
L 171.427642 -55.226411 
L 171.330438 -55.528133 
L 171.229989 -55.829854 
L 171.126284 -56.131576 
L 171.019336 -56.433298 
L 170.909192 -56.73502 
L 170.795942 -57.036742 
L 170.679721 -57.338464 
L 170.560718 -57.640185 
L 170.439174 -57.941907 
L 170.315388 -58.243629 
L 170.189712 -58.545351 
L 170.062547 -58.847073 
L 169.934338 -59.148795 
L 169.805567 -59.450516 
L 169.676738 -59.752238 
L 169.548369 -60.05396 
L 169.420977 -60.355682 
L 169.295065 -60.657404 
L 169.171106 -60.959126 
L 169.04953 -61.260848 
L 168.930714 -61.562569 
L 168.814965 -61.864291 
L 168.702521 -62.166013 
L 168.593535 -62.467735 
L 168.488082 -62.769457 
L 168.386153 -63.071179 
L 168.287666 -63.3729 
L 168.192473 -63.674622 
L 168.100368 -63.976344 
L 168.011111 -64.278066 
L 167.924438 -64.579788 
L 167.840088 -64.88151 
L 167.75782 -65.183231 
L 167.677435 -65.484953 
L 167.598799 -65.786675 
L 167.521863 -66.088397 
L 167.446674 -66.390119 
L 167.373399 -66.691841 
L 167.302325 -66.993562 
L 167.233867 -67.295284 
L 167.168572 -67.597006 
L 167.10711 -67.898728 
L 167.050264 -68.20045 
L 166.99892 -68.502172 
L 166.954041 -68.803894 
L 166.916652 -69.105615 
L 166.88781 -69.407337 
L 166.868579 -69.709059 
L 166.86 -70.010781 
L 166.863062 -70.312503 
L 166.878677 -70.614225 
L 166.907648 -70.915946 
L 166.95065 -71.217668 
L 167.008205 -71.51939 
L 167.080663 -71.821112 
L 167.168191 -72.122834 
L 167.270758 -72.424556 
L 167.388132 -72.726277 
L 167.519877 -73.027999 
L 167.665354 -73.329721 
L 167.823729 -73.631443 
L 167.993985 -73.933165 
L 168.174931 -74.234887 
L 168.365227 -74.536608 
L 168.563398 -74.83833 
L 168.767865 -75.140052 
L 168.976966 -75.441774 
L 169.188985 -75.743496 
L 169.402183 -76.045218 
L 169.614827 -76.34694 
L 169.825219 -76.648661 
L 170.031727 -76.950383 
L 170.232812 -77.252105 
L 170.427054 -77.553827 
L 170.613177 -77.855549 
L 170.790065 -78.157271 
L 170.956785 -78.458992 
L 171.112595 -78.760714 
L 171.256955 -79.062436 
L 171.389527 -79.364158 
L 171.510181 -79.66588 
L 171.618979 -79.967602 
L 171.716177 -80.269323 
L 171.8022 -80.571045 
L 171.877634 -80.872767 
L 171.943198 -81.174489 
L 171.999723 -81.476211 
L 172.048129 -81.777933 
L 172.089396 -82.079654 
L 172.12454 -82.381376 
L 172.154585 -82.683098 
L 172.180538 -82.98482 
L 172.203369 -83.286542 
L 172.223985 -83.588264 
L 172.243217 -83.889986 
L 172.261806 -84.191707 
L 172.280386 -84.493429 
L 173.679614 -84.493429 
L 173.679614 -84.493429 
L 173.698194 -84.191707 
L 173.716783 -83.889986 
L 173.736015 -83.588264 
L 173.756631 -83.286542 
L 173.779462 -82.98482 
L 173.805415 -82.683098 
L 173.83546 -82.381376 
L 173.870604 -82.079654 
L 173.911871 -81.777933 
L 173.960277 -81.476211 
L 174.016802 -81.174489 
L 174.082366 -80.872767 
L 174.1578 -80.571045 
L 174.243823 -80.269323 
L 174.341021 -79.967602 
L 174.449819 -79.66588 
L 174.570473 -79.364158 
L 174.703045 -79.062436 
L 174.847405 -78.760714 
L 175.003215 -78.458992 
L 175.169935 -78.157271 
L 175.346823 -77.855549 
L 175.532946 -77.553827 
L 175.727188 -77.252105 
L 175.928273 -76.950383 
L 176.134781 -76.648661 
L 176.345173 -76.34694 
L 176.557817 -76.045218 
L 176.771015 -75.743496 
L 176.983034 -75.441774 
L 177.192135 -75.140052 
L 177.396602 -74.83833 
L 177.594773 -74.536608 
L 177.785069 -74.234887 
L 177.966015 -73.933165 
L 178.136271 -73.631443 
L 178.294646 -73.329721 
L 178.440123 -73.027999 
L 178.571868 -72.726277 
L 178.689242 -72.424556 
L 178.791809 -72.122834 
L 178.879337 -71.821112 
L 178.951795 -71.51939 
L 179.00935 -71.217668 
L 179.052352 -70.915946 
L 179.081323 -70.614225 
L 179.096938 -70.312503 
L 179.1 -70.010781 
L 179.091421 -69.709059 
L 179.07219 -69.407337 
L 179.043348 -69.105615 
L 179.005959 -68.803894 
L 178.96108 -68.502172 
L 178.909736 -68.20045 
L 178.85289 -67.898728 
L 178.791428 -67.597006 
L 178.726133 -67.295284 
L 178.657675 -66.993562 
L 178.586601 -66.691841 
L 178.513326 -66.390119 
L 178.438137 -66.088397 
L 178.361201 -65.786675 
L 178.282565 -65.484953 
L 178.20218 -65.183231 
L 178.119912 -64.88151 
L 178.035562 -64.579788 
L 177.948889 -64.278066 
L 177.859632 -63.976344 
L 177.767527 -63.674622 
L 177.672334 -63.3729 
L 177.573847 -63.071179 
L 177.471918 -62.769457 
L 177.366465 -62.467735 
L 177.257479 -62.166013 
L 177.145035 -61.864291 
L 177.029286 -61.562569 
L 176.91047 -61.260848 
L 176.788894 -60.959126 
L 176.664935 -60.657404 
L 176.539023 -60.355682 
L 176.411631 -60.05396 
L 176.283262 -59.752238 
L 176.154433 -59.450516 
L 176.025662 -59.148795 
L 175.897453 -58.847073 
L 175.770288 -58.545351 
L 175.644612 -58.243629 
L 175.520826 -57.941907 
L 175.399282 -57.640185 
L 175.280279 -57.338464 
L 175.164058 -57.036742 
L 175.050808 -56.73502 
L 174.940664 -56.433298 
L 174.833716 -56.131576 
L 174.730011 -55.829854 
L 174.629562 -55.528133 
L 174.532358 -55.226411 
L 174.438365 -54.924689 
L 174.347542 -54.622967 
z
" style="stroke: #000000; stroke-width: 1.5"/>
    </defs>
    <g clip-path="url(#p625b2df995)">
     <use xlink:href="#ma93f60ee0a" x="0" y="108" style="fill: #dda0dd; stroke: #000000; stroke-width: 1.5"/>
    </g>
   </g>
   <g id="FillBetweenPolyCollection_6">
    <defs>
     <path id="m7a12aaa8e2" d="M 205.309122 -10.103087 
L 201.850878 -10.103087 
L 201.802677 -10.984569 
L 201.758462 -11.866051 
L 201.718159 -12.747533 
L 201.681591 -13.629016 
L 201.648481 -14.510498 
L 201.618458 -15.39198 
L 201.591063 -16.273463 
L 201.565765 -17.154945 
L 201.541969 -18.036427 
L 201.519036 -18.917909 
L 201.496297 -19.799392 
L 201.47307 -20.680874 
L 201.448677 -21.562356 
L 201.422461 -22.443839 
L 201.393804 -23.325321 
L 201.362136 -24.206803 
L 201.326951 -25.088285 
L 201.287812 -25.969768 
L 201.244362 -26.85125 
L 201.196325 -27.732732 
L 201.143505 -28.614215 
L 201.085788 -29.495697 
L 201.023134 -30.377179 
L 200.955571 -31.258662 
L 200.883186 -32.140144 
L 200.806116 -33.021626 
L 200.724537 -33.903108 
L 200.638651 -34.784591 
L 200.548678 -35.666073 
L 200.454848 -36.547555 
L 200.357386 -37.429038 
L 200.256516 -38.31052 
L 200.152447 -39.192002 
L 200.045381 -40.073484 
L 199.935504 -40.954967 
L 199.822999 -41.836449 
L 199.708045 -42.717931 
L 199.590827 -43.599414 
L 199.471547 -44.480896 
L 199.350432 -45.362378 
L 199.227747 -46.24386 
L 199.103809 -47.125343 
L 198.978994 -48.006825 
L 198.853747 -48.888307 
L 198.728598 -49.76979 
L 198.604159 -50.651272 
L 198.481134 -51.532754 
L 198.360319 -52.414236 
L 198.242598 -53.295719 
L 198.128938 -54.177201 
L 198.02038 -55.058683 
L 197.918026 -55.940166 
L 197.823024 -56.821648 
L 197.736547 -57.70313 
L 197.659774 -58.584612 
L 197.593863 -59.466095 
L 197.539932 -60.347577 
L 197.499028 -61.229059 
L 197.472106 -62.110542 
L 197.46 -62.992024 
L 197.463407 -63.873506 
L 197.482863 -64.754989 
L 197.518722 -65.636471 
L 197.571152 -66.517953 
L 197.640116 -67.399435 
L 197.725373 -68.280918 
L 197.826474 -69.1624 
L 197.94277 -70.043882 
L 198.073418 -70.925365 
L 198.217395 -71.806847 
L 198.373517 -72.688329 
L 198.540461 -73.569811 
L 198.716786 -74.451294 
L 198.900964 -75.332776 
L 199.091404 -76.214258 
L 199.286484 -77.095741 
L 199.484583 -77.977223 
L 199.684103 -78.858705 
L 199.883502 -79.740187 
L 200.081317 -80.62167 
L 200.276187 -81.503152 
L 200.466872 -82.384634 
L 200.652269 -83.266117 
L 200.831424 -84.147599 
L 201.00354 -85.029081 
L 201.167981 -85.910563 
L 201.324272 -86.792046 
L 201.472095 -87.673528 
L 201.611282 -88.55501 
L 201.741807 -89.436493 
L 201.863769 -90.317975 
L 201.977383 -91.199457 
L 202.082959 -92.08094 
L 202.180888 -92.962422 
L 202.271622 -93.843904 
L 202.355659 -94.725386 
L 202.433526 -95.606869 
L 202.50576 -96.488351 
L 202.572899 -97.369833 
L 204.587101 -97.369833 
L 204.587101 -97.369833 
L 204.65424 -96.488351 
L 204.726474 -95.606869 
L 204.804341 -94.725386 
L 204.888378 -93.843904 
L 204.979112 -92.962422 
L 205.077041 -92.08094 
L 205.182617 -91.199457 
L 205.296231 -90.317975 
L 205.418193 -89.436493 
L 205.548718 -88.55501 
L 205.687905 -87.673528 
L 205.835728 -86.792046 
L 205.992019 -85.910563 
L 206.15646 -85.029081 
L 206.328576 -84.147599 
L 206.507731 -83.266117 
L 206.693128 -82.384634 
L 206.883813 -81.503152 
L 207.078683 -80.62167 
L 207.276498 -79.740187 
L 207.475897 -78.858705 
L 207.675417 -77.977223 
L 207.873516 -77.095741 
L 208.068596 -76.214258 
L 208.259036 -75.332776 
L 208.443214 -74.451294 
L 208.619539 -73.569811 
L 208.786483 -72.688329 
L 208.942605 -71.806847 
L 209.086582 -70.925365 
L 209.21723 -70.043882 
L 209.333526 -69.1624 
L 209.434627 -68.280918 
L 209.519884 -67.399435 
L 209.588848 -66.517953 
L 209.641278 -65.636471 
L 209.677137 -64.754989 
L 209.696593 -63.873506 
L 209.7 -62.992024 
L 209.687894 -62.110542 
L 209.660972 -61.229059 
L 209.620068 -60.347577 
L 209.566137 -59.466095 
L 209.500226 -58.584612 
L 209.423453 -57.70313 
L 209.336976 -56.821648 
L 209.241974 -55.940166 
L 209.13962 -55.058683 
L 209.031062 -54.177201 
L 208.917402 -53.295719 
L 208.799681 -52.414236 
L 208.678866 -51.532754 
L 208.555841 -50.651272 
L 208.431402 -49.76979 
L 208.306253 -48.888307 
L 208.181006 -48.006825 
L 208.056191 -47.125343 
L 207.932253 -46.24386 
L 207.809568 -45.362378 
L 207.688453 -44.480896 
L 207.569173 -43.599414 
L 207.451955 -42.717931 
L 207.337001 -41.836449 
L 207.224496 -40.954967 
L 207.114619 -40.073484 
L 207.007553 -39.192002 
L 206.903484 -38.31052 
L 206.802614 -37.429038 
L 206.705152 -36.547555 
L 206.611322 -35.666073 
L 206.521349 -34.784591 
L 206.435463 -33.903108 
L 206.353884 -33.021626 
L 206.276814 -32.140144 
L 206.204429 -31.258662 
L 206.136866 -30.377179 
L 206.074212 -29.495697 
L 206.016495 -28.614215 
L 205.963675 -27.732732 
L 205.915638 -26.85125 
L 205.872188 -25.969768 
L 205.833049 -25.088285 
L 205.797864 -24.206803 
L 205.766196 -23.325321 
L 205.737539 -22.443839 
L 205.711323 -21.562356 
L 205.68693 -20.680874 
L 205.663703 -19.799392 
L 205.640964 -18.917909 
L 205.618031 -18.036427 
L 205.594235 -17.154945 
L 205.568937 -16.273463 
L 205.541542 -15.39198 
L 205.511519 -14.510498 
L 205.478409 -13.629016 
L 205.441841 -12.747533 
L 205.401538 -11.866051 
L 205.357323 -10.984569 
L 205.309122 -10.103087 
z
" style="stroke: #000000; stroke-width: 1.5"/>
    </defs>
    <g clip-path="url(#p625b2df995)">
     <use xlink:href="#m7a12aaa8e2" x="0" y="108" style="fill: #dda0dd; stroke: #000000; stroke-width: 1.5"/>
    </g>
   </g>
   <g id="FillBetweenPolyCollection_7">
    <defs>
     <path id="mb294cf4708" d="M 235.766001 -63.568363 
L 232.593999 -63.568363 
L 232.504252 -63.975478 
L 232.415243 -64.382593 
L 232.327326 -64.789708 
L 232.240793 -65.196823 
L 232.155856 -65.603938 
L 232.072641 -66.011053 
L 231.991175 -66.418168 
L 231.911377 -66.825283 
L 231.833057 -67.232398 
L 231.755913 -67.639513 
L 231.679532 -68.046628 
L 231.6034 -68.453743 
L 231.526914 -68.860858 
L 231.449389 -69.267974 
L 231.370087 -69.675089 
L 231.288233 -70.082204 
L 231.203044 -70.489319 
L 231.113753 -70.896434 
L 231.019643 -71.303549 
L 230.920071 -71.710664 
L 230.814504 -72.117779 
L 230.702539 -72.524894 
L 230.583937 -72.932009 
L 230.458637 -73.339124 
L 230.326778 -73.746239 
L 230.188708 -74.153354 
L 230.044994 -74.560469 
L 229.896422 -74.967585 
L 229.74399 -75.3747 
L 229.588896 -75.781815 
L 229.432523 -76.18893 
L 229.276415 -76.596045 
L 229.122248 -77.00316 
L 228.9718 -77.410275 
L 228.826911 -77.81739 
L 228.689453 -78.224505 
L 228.561283 -78.63162 
L 228.444211 -79.038735 
L 228.339956 -79.44585 
L 228.25011 -79.852965 
L 228.176107 -80.26008 
L 228.11919 -80.667196 
L 228.080384 -81.074311 
L 228.060476 -81.481426 
L 228.06 -81.888541 
L 228.079223 -82.295656 
L 228.118144 -82.702771 
L 228.176493 -83.109886 
L 228.253741 -83.517001 
L 228.34911 -83.924116 
L 228.461593 -84.331231 
L 228.589977 -84.738346 
L 228.732867 -85.145461 
L 228.888719 -85.552576 
L 229.055869 -85.959691 
L 229.232569 -86.366806 
L 229.41702 -86.773922 
L 229.607407 -87.181037 
L 229.80193 -87.588152 
L 229.998837 -87.995267 
L 230.196449 -88.402382 
L 230.393186 -88.809497 
L 230.587591 -89.216612 
L 230.77834 -89.623727 
L 230.964263 -90.030842 
L 231.144342 -90.437957 
L 231.317725 -90.845072 
L 231.483718 -91.252187 
L 231.641785 -91.659302 
L 231.791539 -92.066417 
L 231.932733 -92.473533 
L 232.065247 -92.880648 
L 232.189078 -93.287763 
L 232.304319 -93.694878 
L 232.411152 -94.101993 
L 232.509828 -94.509108 
L 232.600658 -94.916223 
L 232.683995 -95.323338 
L 232.76023 -95.730453 
L 232.829778 -96.137568 
L 232.893069 -96.544683 
L 232.950549 -96.951798 
L 233.002668 -97.358913 
L 233.049878 -97.766028 
L 233.092634 -98.173143 
L 233.13139 -98.580259 
L 233.166597 -98.987374 
L 233.198701 -99.394489 
L 233.228144 -99.801604 
L 233.25536 -100.208719 
L 233.280771 -100.615834 
L 233.304787 -101.022949 
L 233.327801 -101.430064 
L 233.350182 -101.837179 
L 233.372273 -102.244294 
L 233.394385 -102.651409 
L 233.416793 -103.058524 
L 233.439729 -103.465639 
L 233.463383 -103.872754 
L 234.896617 -103.872754 
L 234.896617 -103.872754 
L 234.920271 -103.465639 
L 234.943207 -103.058524 
L 234.965615 -102.651409 
L 234.987727 -102.244294 
L 235.009818 -101.837179 
L 235.032199 -101.430064 
L 235.055213 -101.022949 
L 235.079229 -100.615834 
L 235.10464 -100.208719 
L 235.131856 -99.801604 
L 235.161299 -99.394489 
L 235.193403 -98.987374 
L 235.22861 -98.580259 
L 235.267366 -98.173143 
L 235.310122 -97.766028 
L 235.357332 -97.358913 
L 235.409451 -96.951798 
L 235.466931 -96.544683 
L 235.530222 -96.137568 
L 235.59977 -95.730453 
L 235.676005 -95.323338 
L 235.759342 -94.916223 
L 235.850172 -94.509108 
L 235.948848 -94.101993 
L 236.055681 -93.694878 
L 236.170922 -93.287763 
L 236.294753 -92.880648 
L 236.427267 -92.473533 
L 236.568461 -92.066417 
L 236.718215 -91.659302 
L 236.876282 -91.252187 
L 237.042275 -90.845072 
L 237.215658 -90.437957 
L 237.395737 -90.030842 
L 237.58166 -89.623727 
L 237.772409 -89.216612 
L 237.966814 -88.809497 
L 238.163551 -88.402382 
L 238.361163 -87.995267 
L 238.55807 -87.588152 
L 238.752593 -87.181037 
L 238.94298 -86.773922 
L 239.127431 -86.366806 
L 239.304131 -85.959691 
L 239.471281 -85.552576 
L 239.627133 -85.145461 
L 239.770023 -84.738346 
L 239.898407 -84.331231 
L 240.01089 -83.924116 
L 240.106259 -83.517001 
L 240.183507 -83.109886 
L 240.241856 -82.702771 
L 240.280777 -82.295656 
L 240.3 -81.888541 
L 240.299524 -81.481426 
L 240.279616 -81.074311 
L 240.24081 -80.667196 
L 240.183893 -80.26008 
L 240.10989 -79.852965 
L 240.020044 -79.44585 
L 239.915789 -79.038735 
L 239.798717 -78.63162 
L 239.670547 -78.224505 
L 239.533089 -77.81739 
L 239.3882 -77.410275 
L 239.237752 -77.00316 
L 239.083585 -76.596045 
L 238.927477 -76.18893 
L 238.771104 -75.781815 
L 238.61601 -75.3747 
L 238.463578 -74.967585 
L 238.315006 -74.560469 
L 238.171292 -74.153354 
L 238.033222 -73.746239 
L 237.901363 -73.339124 
L 237.776063 -72.932009 
L 237.657461 -72.524894 
L 237.545496 -72.117779 
L 237.439929 -71.710664 
L 237.340357 -71.303549 
L 237.246247 -70.896434 
L 237.156956 -70.489319 
L 237.071767 -70.082204 
L 236.989913 -69.675089 
L 236.910611 -69.267974 
L 236.833086 -68.860858 
L 236.7566 -68.453743 
L 236.680468 -68.046628 
L 236.604087 -67.639513 
L 236.526943 -67.232398 
L 236.448623 -66.825283 
L 236.368825 -66.418168 
L 236.287359 -66.011053 
L 236.204144 -65.603938 
L 236.119207 -65.196823 
L 236.032674 -64.789708 
L 235.944757 -64.382593 
L 235.855748 -63.975478 
L 235.766001 -63.568363 
z
" style="stroke: #000000; stroke-width: 1.5"/>
    </defs>
    <g clip-path="url(#p625b2df995)">
     <use xlink:href="#mb294cf4708" x="0" y="108" style="fill: #dda0dd; stroke: #000000; stroke-width: 1.5"/>
    </g>
   </g>
   <g id="LineCollection_1">
    <path d="M 47.52 59.795161 
L 53.64 59.795161 
" clip-path="url(#p625b2df995)" style="fill: none; stroke: #000000; stroke-width: 1.5"/>
    <path d="M 78.12 26.936482 
L 84.24 26.936482 
" clip-path="url(#p625b2df995)" style="fill: none; stroke: #000000; stroke-width: 1.5"/>
    <path d="M 108.72 51.213088 
L 114.84 51.213088 
" clip-path="url(#p625b2df995)" style="fill: none; stroke: #000000; stroke-width: 1.5"/>
    <path d="M 139.32 56.406582 
L 145.44 56.406582 
" clip-path="url(#p625b2df995)" style="fill: none; stroke: #000000; stroke-width: 1.5"/>
    <path d="M 169.92 39.060414 
L 176.04 39.060414 
" clip-path="url(#p625b2df995)" style="fill: none; stroke: #000000; stroke-width: 1.5"/>
    <path d="M 200.52 46.350052 
L 206.64 46.350052 
" clip-path="url(#p625b2df995)" style="fill: none; stroke: #000000; stroke-width: 1.5"/>
    <path d="M 231.12 26.477673 
L 237.24 26.477673 
" clip-path="url(#p625b2df995)" style="fill: none; stroke: #000000; stroke-width: 1.5"/>
   </g>
   <g id="patch_3">
    <path d="M 35.28 93.96 
L 35.28 5.4 
" style="fill: none; stroke: #000000; stroke-width: 1.5; stroke-linejoin: miter; stroke-linecap: square"/>
   </g>
   <g id="patch_4">
    <path d="M 249.48 93.96 
L 249.48 5.4 
" style="fill: none; stroke: #000000; stroke-width: 1.5; stroke-linejoin: miter; stroke-linecap: square"/>
   </g>
   <g id="patch_5">
    <path d="M 35.28 93.96 
L 249.48 93.96 
" style="fill: none; stroke: #000000; stroke-width: 1.5; stroke-linejoin: miter; stroke-linecap: square"/>
   </g>
   <g id="patch_6">
    <path d="M 35.28 5.4 
L 249.48 5.4 
" style="fill: none; stroke: #000000; stroke-width: 1.5; stroke-linejoin: miter; stroke-linecap: square"/>
   </g>
  </g>
 </g>
 <defs>
  <clipPath id="p625b2df995">
   <rect x="35.28" y="5.4" width="214.2" height="88.56"/>
  </clipPath>
 </defs>
</svg>
